<svg id="SvgjsSvg1259" width="288" height="288" xmlns="http://www.w3.org/2000/svg" version="1.1" xmlns:xlink="http://www.w3.org/1999/xlink" xmlns:svgjs="http://svgjs.com/svgjs"><defs id="SvgjsDefs1260"></defs><g id="SvgjsG1261"><svg xmlns="http://www.w3.org/2000/svg" viewBox="0 0 64 64" width="288" height="288"><path d="M2.66 52.68c.26.5.77.82 1.34.82h56c.57 0 1.08-.32 1.34-.82s.2-1.11-.13-1.57l-17.98-24.3c-.57-.76-1.85-.76-2.41 0l-2.79 3.78-8.53-11.52V13.5h10.86c.83 0 1.5-.67 1.5-1.5V4c0-.83-.67-1.5-1.5-1.5H28c-.83 0-1.5.67-1.5 1.5v15.07L2.79 51.11c-.33.45-.38 1.06-.13 1.57zm39.36-22.46 15 20.28h-4.27L39.89 33.11l2.13-2.89zM38.86 10.5H29.5v-5h9.36v5zM28 22.09 36.81 34l12.21 16.5H6.98L28 22.09z" fill="#282828" class="color000 svgShape"></path></svg></g></svg>