<svg id="SvgjsSvg1060" width="288" height="288" xmlns="http://www.w3.org/2000/svg" version="1.1" xmlns:xlink="http://www.w3.org/1999/xlink" xmlns:svgjs="http://svgjs.com/svgjs"><defs id="SvgjsDefs1061"></defs><g id="SvgjsG1062"><svg xmlns="http://www.w3.org/2000/svg" viewBox="0 0 64 64" width="288" height="288"><path d="M17.05 45.03c-.12 0-.25-.02-.37-.07a.998.998 0 0 1-.6-.8c-.88-9.24 3.17-15.37 5.66-18.2.35-.4.97-.44 1.37-.09.4.35.44.97.09 1.37-2.12 2.41-5.48 7.44-5.29 14.98 1.13-.79 2.87-1.88 5.07-2.93a.969.969 0 0 1 .83 1.75c-3.77 1.79-6.12 3.75-6.14 3.77-.18.15-.4.22-.62.22zm29.9 0c-.22 0-.45-.08-.63-.23-.02-.02-2.38-1.98-6.14-3.77a.972.972 0 0 1-.46-1.29c.23-.48.81-.69 1.29-.46a35.64 35.64 0 0 1 5.07 2.93c.18-7.54-3.17-12.57-5.29-14.99a.977.977 0 0 1 .09-1.37.977.977 0 0 1 1.37.09c2.49 2.83 6.54 8.97 5.66 18.21-.03.36-.26.67-.6.8-.11.06-.23.08-.36.08zM32 64c-.3 0-.59-.14-.77-.38-.17-.23-4.27-5.7-4.53-12.67-.01-.26.09-.52.27-.71.18-.19.43-.3.7-.3h8.67a.976.976 0 0 1 .97 1.01c-.26 6.97-4.36 12.44-4.54 12.67A.98.98 0 0 1 32 64zm-3.3-12.12c.4 4.13 2.23 7.65 3.3 9.39 1.07-1.74 2.9-5.26 3.3-9.39h-6.6z" fill="#ffffff" class="color000 svgShape"></path><path d="M40.01 43.69H23.99c-.44 0-.83-.3-.94-.72a50.34 50.34 0 0 1-1.65-12.78C21.4 9.2 30.95.6 31.35.25c.37-.32.91-.32 1.28 0 .41.36 9.95 8.96 9.95 29.94 0 4.33-.55 8.63-1.65 12.78-.09.42-.48.72-.92.72zm-15.26-1.94h14.51c.93-3.77 1.4-7.65 1.4-11.56 0-16.97-6.55-25.52-8.65-27.83-2.1 2.32-8.66 10.92-8.66 27.83 0 3.91.47 7.79 1.4 11.56z" fill="#ffffff" class="color000 svgShape"></path><path d="M38.66 48.03H25.34c-.3 0-.59-.14-.77-.38a.991.991 0 0 1-.16-.85l1.21-4.34c.14-.52.68-.82 1.19-.67.52.14.82.68.67 1.19l-.87 3.11h10.77l-.87-3.11a.967.967 0 0 1 .67-1.19.971.971 0 0 1 1.19.67l1.21 4.34c.08.29.02.6-.16.85-.17.23-.46.38-.76.38zM32 24.91c-2.91 0-5.28-2.37-5.28-5.28s2.37-5.28 5.28-5.28 5.28 2.37 5.28 5.28-2.37 5.28-5.28 5.28zm0-8.61c-1.84 0-3.34 1.5-3.34 3.34 0 1.84 1.5 3.34 3.34 3.34a3.34 3.34 0 1 0 0-6.68zM37.34 9.84H26.66c-.54 0-.97-.43-.97-.97s.43-.97.97-.97h10.68c.54 0 .97.43.97.97s-.43.97-.97.97z" fill="#ffffff" class="color000 svgShape"></path></svg></g></svg>